<svg xmlns="http://www.w3.org/2000/svg" width="136.64" height="110.625" viewBox="0 0 136.64 110.625"><defs><style>.a{fill:#ffce56;}.b{fill:#b8336a;}.c{fill:#fff;}.d{fill:#eac8d8;}.e{fill:#050038;}.f{fill:#b5b4c4;}</style></defs><g transform="translate(16.235 -20)"><path class="a" d="M100.468,424.24l-5.9,10.419H82.5l8.2-14.492Z" transform="translate(-63.164 -306.378)"/><path class="a" d="M276.837,424.24l5.9,10.419H294.8l-8.2-14.492Z" transform="translate(-211.953 -306.378)"/><circle class="b" cx="48.75" cy="48.75" r="48.75" transform="translate(2.344 22.344)"/><circle class="c" cx="33.75" cy="33.75" r="33.75" transform="translate(17.344 37.344)"/><circle class="d" cx="18.75" cy="18.75" r="18.75" transform="translate(32.344 52.344)"/><path class="a" d="M371.826,196.074,362,205.9l9.826,9.827h22.986l-9.826-9.827,9.826-9.826Z" transform="translate(-277.156 -134.807)"/><g transform="translate(0 20)"><path d="M310.541,130.209a2.344,2.344,0,0,0,3.315-3.315l-.032-.032a2.344,2.344,0,0,0-3.315,3.315Z" transform="translate(-237.208 -101.291)"/><path class="e" d="M111.144,71.094l8.169-8.169a2.344,2.344,0,0,0-1.658-4H100.722a51.1,51.1,0,1,0-85.757,48.3,51.46,51.46,0,0,0,9.392,7.43L17.3,127.127a2.344,2.344,0,0,0,2.04,3.5h12.07a2.344,2.344,0,0,0,2.04-1.189l4.993-8.821a51.711,51.711,0,0,0,25.31,0l4.993,8.821a2.344,2.344,0,0,0,2.04,1.189h12.07a2.344,2.344,0,0,0,2.04-3.5L77.83,114.652a51.47,51.47,0,0,0,9.392-7.43,50.92,50.92,0,0,0,13.5-23.958h16.934a2.344,2.344,0,0,0,1.658-4Zm-4.286-2.344H90.5l5.139-5.139H112ZM30.04,125.937H23.356l5.1-9.012a50.391,50.391,0,0,0,5.387,2.291Zm48.792,0H72.148l-3.8-6.721a50.392,50.392,0,0,0,5.387-2.291Zm5.076-22.03a46.615,46.615,0,0,1-10.276,7.772c-.046.022-.092.043-.138.069-.028.016-.054.035-.082.052a45.8,45.8,0,0,1-8.986,3.763,2.321,2.321,0,0,0-.364.105,46.861,46.861,0,0,1-25.936,0,2.327,2.327,0,0,0-.364-.105,45.8,45.8,0,0,1-8.986-3.763c-.027-.017-.053-.036-.082-.052-.045-.026-.091-.047-.137-.069a46.609,46.609,0,0,1-10.276-7.773,46.406,46.406,0,1,1,77.6-44.984H94.67a2.344,2.344,0,0,0-1.657.686l-6.221,6.221a36.11,36.11,0,0,0-4.086-12.172,2.344,2.344,0,1,0-4.1,2.266A31.123,31.123,0,0,1,82.389,68.75H72.055a21.1,21.1,0,1,0,0,4.687H82.379A31.375,31.375,0,1,1,66.264,43.584a2.344,2.344,0,1,0,2.266-4.1,36.353,36.353,0,0,0-22.259-4.159A36.095,36.095,0,1,0,86.8,76.365l6.212,6.212a2.344,2.344,0,0,0,1.657.686h1.213A46.255,46.255,0,0,1,83.908,103.908ZM58.748,66.674a2.343,2.343,0,0,0-3.2-.858l-5.625,3.247a2.344,2.344,0,0,0,0,4.059l5.625,3.247a2.342,2.342,0,0,0,3.332-2.933h8.454a16.28,16.28,0,0,1-4.638,9.257h0A16.4,16.4,0,1,1,67.333,68.75H58.879A2.338,2.338,0,0,0,58.748,66.674Zm36.892,11.9L90.5,73.437h16.357L112,78.576Z" transform="translate(0 -20)"/></g><g transform="translate(0.513 28.158)"><path class="f" d="M223.5,326.566a6.581,6.581,0,1,1-6.617,6.581A6.606,6.606,0,0,1,223.5,326.566Zm0,9.154a2.574,2.574,0,1,0-2.587-2.573A2.583,2.583,0,0,0,223.5,335.72Zm0,0" transform="translate(-233.635 -297.051)"/><path class="f" d="M51.25,20.67a3.117,3.117,0,1,1,3.117,3.1A3.108,3.108,0,0,1,51.25,20.67Zm0,0" transform="translate(51.9 76.624)"/><path class="f" d="M337.969,334.7a3.117,3.117,0,1,1,3.117,3.1A3.108,3.108,0,0,1,337.969,334.7Zm0,0" transform="translate(-341.463 -337.597)"/><path class="f" d="M-2888.8-3028.652l-2.138-2.126-2.138,2.126a2.023,2.023,0,0,1-2.85,0,2,2,0,0,1,0-2.834l2.139-2.126-2.137-2.125a1.994,1.994,0,0,1,0-2.833,2.011,2.011,0,0,1,1.424-.588,2.015,2.015,0,0,1,1.426.588l2.137,2.125,2.137-2.125a2.017,2.017,0,0,1,1.425-.588,2.017,2.017,0,0,1,1.426.588,2,2,0,0,1,0,2.833l-2.138,2.126,2.138,2.126a2,2,0,0,1,0,2.834,2.014,2.014,0,0,1-1.425.587A2.014,2.014,0,0,1-2888.8-3028.652Z" transform="translate(2887.513 3121.772)"/><path class="f" d="M134.758,26.191a6.582,6.582,0,1,1-6.617,6.582A6.607,6.607,0,0,1,134.758,26.191Zm0,9.154a2.573,2.573,0,1,0-2.585-2.572A2.582,2.582,0,0,0,134.758,35.345Zm0,0" transform="translate(-21.483 32.469)"/><path class="f" d="M-2888.8-3028.652l-2.137-2.126-2.138,2.126a2.022,2.022,0,0,1-2.849,0,2,2,0,0,1,0-2.834l2.138-2.126-2.136-2.125a1.993,1.993,0,0,1,0-2.834,2.006,2.006,0,0,1,1.424-.588,2.012,2.012,0,0,1,1.426.588l2.137,2.125,2.137-2.125a2.011,2.011,0,0,1,1.425-.588,2.015,2.015,0,0,1,1.426.588,2,2,0,0,1,0,2.834l-2.138,2.125,2.137,2.125a1.994,1.994,0,0,1,0,2.834,2.013,2.013,0,0,1-1.425.587A2.015,2.015,0,0,1-2888.8-3028.652Z" transform="translate(2994.964 3048.928)"/></g></g></svg>