<svg xmlns="http://www.w3.org/2000/svg" width="122.539" height="113.552" viewBox="0 0 122.539 113.552"><defs><style>.a,.i{fill:#a5dc79;}.a{opacity:0.25;}.b{fill:#b5b4c4;}.c,.d{fill:#eac6bb;}.d,.e,.g,.h,.i,.j,.k{stroke:#050038;}.d{stroke-width:3px;}.e{fill:#e6e9ed;}.e,.g,.h,.i,.j,.k{stroke-width:2px;}.f{fill:#050038;}.g{fill:#c9658e;}.h{fill:#8a244e;}.j{fill:#ffce56;}.k{fill:#b8336a;}</style></defs><g transform="translate(1 0.969)"><path class="a" d="M129.547,99.34A37.284,37.284,0,1,1,92.264,62.262,37.181,37.181,0,0,1,129.547,99.34Zm0,0" transform="translate(-39.858 -36.951)"/><g transform="translate(5.513 12.19)"><path class="b" d="M223.5,326.566a6.581,6.581,0,1,1-6.617,6.581A6.606,6.606,0,0,1,223.5,326.566Zm0,9.154a2.574,2.574,0,1,0-2.587-2.573A2.583,2.583,0,0,0,223.5,335.72Zm0,0" transform="translate(-217.635 -301.051)"/><path class="b" d="M51.25,20.67a3.117,3.117,0,1,1,3.117,3.1A3.108,3.108,0,0,1,51.25,20.67Zm0,0" transform="translate(51.9 76.624)"/><path class="b" d="M337.969,334.7a3.117,3.117,0,1,1,3.117,3.1A3.108,3.108,0,0,1,337.969,334.7Zm0,0" transform="translate(-341.463 -337.597)"/><path class="b" d="M-2888.8-3028.652l-2.138-2.126-2.138,2.126a2.023,2.023,0,0,1-2.85,0,2,2,0,0,1,0-2.834l2.139-2.126-2.137-2.125a1.994,1.994,0,0,1,0-2.833,2.011,2.011,0,0,1,1.424-.588,2.015,2.015,0,0,1,1.426.588l2.137,2.125,2.137-2.125a2.017,2.017,0,0,1,1.425-.588,2.017,2.017,0,0,1,1.426.588,2,2,0,0,1,0,2.833l-2.138,2.126,2.138,2.126a2,2,0,0,1,0,2.834,2.014,2.014,0,0,1-1.425.587A2.014,2.014,0,0,1-2888.8-3028.652Z" transform="translate(2923.513 3038.772)"/><path class="b" d="M134.758,26.191a6.582,6.582,0,1,1-6.617,6.582A6.607,6.607,0,0,1,134.758,26.191Zm0,9.154a2.573,2.573,0,1,0-2.585-2.572A2.582,2.582,0,0,0,134.758,35.345Zm0,0" transform="translate(-32.483 26.469)"/><path class="b" d="M-2888.8-3028.652l-2.137-2.126-2.138,2.126a2.022,2.022,0,0,1-2.849,0,2,2,0,0,1,0-2.834l2.138-2.126-2.136-2.125a1.993,1.993,0,0,1,0-2.834,2.006,2.006,0,0,1,1.424-.588,2.012,2.012,0,0,1,1.426.588l2.137,2.125,2.137-2.125a2.011,2.011,0,0,1,1.425-.588,2.015,2.015,0,0,1,1.426.588,2,2,0,0,1,0,2.834l-2.138,2.125,2.137,2.125a1.994,1.994,0,0,1,0,2.834,2.013,2.013,0,0,1-1.425.587A2.015,2.015,0,0,1-2888.8-3028.652Z" transform="translate(2969.964 3118.928)"/></g><path class="c" d="M141.356,289.125a5.706,5.706,0,0,0-5.714-5.714,5.714,5.714,0,0,0,0-11.427V272H112.768v-.019a22.84,22.84,0,0,0-18.607,9.561H87.993v26.663h6.2a22.82,22.82,0,0,0,18.569,9.523H135.64v-.02a5.723,5.723,0,0,0,0-11.446,5.714,5.714,0,1,0,0-11.427,5.706,5.706,0,0,0,5.715-5.714Zm0,0" transform="translate(-67.045 -207.21)"/><path class="d" d="M141.356,289.125a5.706,5.706,0,0,0-5.714-5.714,5.714,5.714,0,0,0,0-11.427V272H112.768v-.019a22.84,22.84,0,0,0-18.607,9.561H87.993v26.663h6.2a22.82,22.82,0,0,0,18.569,9.523H135.64v-.02a5.723,5.723,0,0,0,0-11.446,5.714,5.714,0,1,0,0-11.427,5.706,5.706,0,0,0,5.715-5.714Zm0,0" transform="translate(-67.045 -207.21)"/><path class="e" d="M57.523,324.713v3.809a1.909,1.909,0,0,1-1.9,1.9H49.9a1.912,1.912,0,0,1-1.9-1.9V298.049a1.911,1.911,0,0,1,1.9-1.9h5.714a1.909,1.909,0,0,1,1.9,1.9v26.663Zm0,0" transform="translate(-36.573 -225.619)"/><path class="f" d="M238.662,367.723a7.618,7.618,0,1,1-7.618-7.618A7.618,7.618,0,0,1,238.662,367.723Zm0,0" transform="translate(-170.236 -274.353)"/><path class="f" d="M236.035,421.437h-9.983a7.619,7.619,0,1,1,9.983,0Zm0,0" transform="translate(-170.236 -310.925)"/><path class="c" d="M231.441,373.777A5.74,5.74,0,0,0,237,379.51a.4.4,0,0,1,.153-.02h.038l7.618.02v-.02a5.714,5.714,0,0,0,0-11.427v.02l-7.373-.02a1.382,1.382,0,0,1-.282.02H237a5.705,5.705,0,0,0-5.563,5.694Zm0,0" transform="translate(-176.343 -280.416)"/><path class="c" d="M237,416.083a5.7,5.7,0,0,0,.153,11.408v.038h5.752v-.019h1.9v-.02a5.714,5.714,0,0,0,0-11.427v.02l-7.618-.02h-.038A.4.4,0,0,0,237,416.083Zm0,0" transform="translate(-176.343 -316.989)"/><path class="c" d="M279.52,272.145v11.427h1.924v-.02a5.707,5.707,0,0,0,.285-11.408Zm0,0" transform="translate(-212.976 -207.333)"/><path class="c" d="M262.056,325.8a5.7,5.7,0,0,1-5.432,5.694l7.373.02v-.02a5.714,5.714,0,1,0,0-11.427v.02h-1.924V325.8Zm0,0" transform="translate(-195.531 -243.843)"/><path class="f" d="M238.662,319.723a7.618,7.618,0,1,1-7.618-7.618A7.618,7.618,0,0,1,238.662,319.723Zm0,0" transform="translate(-170.236 -237.78)"/><path class="c" d="M237.1,307.091a5.745,5.745,0,0,0,5.733-5.561.413.413,0,0,1-.02-.152v-.038l.02-7.618h-.02a5.714,5.714,0,0,0-11.427,0h.02l-.02,7.371a1.4,1.4,0,0,1,.02.284v.153a5.706,5.706,0,0,0,5.694,5.563Zm0,0" transform="translate(-176.305 -219.419)"/><g transform="translate(44.638 64.812)"><path class="f" d="M279.426,272.145h1.9v17.131h-1.9Zm0,0" transform="translate(-257.543 -272.145)"/><path class="f" d="M223.441,324.09h1.9v4.765h-1.9Zm0,0" transform="translate(-214.886 -311.724)"/><path class="f" d="M191.5,316.09h8.555l.952.946v.959H191.5Zm0,0" transform="translate(-190.552 -305.628)"/><path class="f" d="M189.409,317.015a.952.952,0,1,1-.952-.952A.952.952,0,0,1,189.409,317.015Zm0,0" transform="translate(-187.504 -305.608)"/><path class="f" d="M225.346,317.015a.952.952,0,1,1-.952-.952A.952.952,0,0,1,225.346,317.015Zm0,0" transform="translate(-214.886 -305.608)"/><path class="f" d="M245.182,413.035a5.623,5.623,0,0,1-3.006-.972h13.96a5.684,5.684,0,0,1-3.146.952,5.68,5.68,0,0,1,3.146.952H242.212A5.586,5.586,0,0,1,245.182,413.035Zm0,0" transform="translate(-229.16 -378.753)"/><path class="f" d="M284.848,317.968v-1.9h3.8a5.684,5.684,0,0,1-3.146.952,5.68,5.68,0,0,1,3.146.952Zm0,0" transform="translate(-261.674 -305.608)"/><path class="f" d="M265.145,365.967l1.577-1.9h6.915a5.684,5.684,0,0,1-3.146.952,5.68,5.68,0,0,1,3.146.952Zm0,0" transform="translate(-246.661 -342.18)"/></g><path class="g" d="M391.662,179.922a3.81,3.81,0,0,1-3.809,3.809v-.02a3.794,3.794,0,0,0-3.79,3.809V176.113h3.809A3.8,3.8,0,0,1,391.662,179.922Zm0,0" transform="translate(-292.63 -134.163)"/><path class="h" d="M412.631,96.113l-7.618,17.141,7.618,17.141H387.872v-.02a3.809,3.809,0,0,1-.019-7.618v.02a3.81,3.81,0,0,0,3.809-3.809V96.113Zm0,0" transform="translate(-292.631 -73.208)"/><path class="i" d="M300.292,47.349V70.2a3.8,3.8,0,0,0-3.79-3.809H264.144V32.113H296.5a3.79,3.79,0,0,1,3.79,3.809Zm0,0" transform="translate(-201.261 -24.444)"/><path class="j" d="M245.736,7.669V64.785h-5.752V2.908a2.876,2.876,0,1,1,5.752,0Zm0,0" transform="translate(-182.853)"/><path class="k" d="M11.431,272.145H0v43.8H11.431a1.912,1.912,0,0,0,1.9-1.9V274.049A1.911,1.911,0,0,0,11.431,272.145Zm0,0" transform="translate(0 -207.333)"/></g></svg>