<svg xmlns="http://www.w3.org/2000/svg" width="120" height="120" viewBox="0 0 120 120"><defs><style>.a,.f{fill:#a5dc79;}.a{opacity:0.25;}.b{fill:#b5b4c4;}.c{fill:#b8336a;}.d{fill:#050038;}.e{fill:#ffce56;}</style></defs><g transform="translate(-0.369 0)"><path class="a" d="M129.547,99.34A37.284,37.284,0,1,1,92.264,62.262,37.181,37.181,0,0,1,129.547,99.34Zm0,0" transform="translate(-38.489 -43.983)"/><g transform="translate(6.883 5.158)"><path class="b" d="M134.758,39.355a6.582,6.582,0,1,1,6.617-6.582A6.607,6.607,0,0,1,134.758,39.355Zm0-9.154a2.573,2.573,0,1,0,2.585,2.572A2.582,2.582,0,0,0,134.758,30.2Zm0,0" transform="translate(-96.934 -23.66)"/><path class="b" d="M223.5,339.728a6.581,6.581,0,1,1,6.617-6.581A6.606,6.606,0,0,1,223.5,339.728Zm0-9.154a2.574,2.574,0,1,0,2.587,2.573A2.583,2.583,0,0,0,223.5,330.574Zm0,0" transform="translate(-159.481 -235.849)"/><path class="b" d="M57.484,20.67a3.117,3.117,0,1,1-3.117-3.1A3.108,3.108,0,0,1,57.484,20.67Zm0,0" transform="translate(-42.743 -17.57)"/><path class="b" d="M344.2,334.7a3.117,3.117,0,1,1-3.117-3.1A3.108,3.108,0,0,1,344.2,334.7Zm0,0" transform="translate(-244.818 -239.403)"/><path class="b" d="M352.13,235.37a2.019,2.019,0,0,1-1.425-.587,2,2,0,0,1,0-2.834l7.126-7.085a2.021,2.021,0,0,1,2.85,0,2,2,0,0,1,0,2.834l-7.124,7.085A2.019,2.019,0,0,1,352.13,235.37Zm0,0" transform="translate(-253.378 -163.591)"/><path class="b" d="M359.253,235.37a2.017,2.017,0,0,1-1.425-.587L350.7,227.7a2,2,0,0,1,0-2.834,2.021,2.021,0,0,1,2.85,0l7.124,7.085a2,2,0,0,1-1.424,3.421Zm0,0" transform="translate(-253.376 -163.591)"/><path class="b" d="M24.451,160.276a2,2,0,0,1-1.425-3.421l7.126-7.085a2.021,2.021,0,0,1,2.85,0,2,2,0,0,1,0,2.834l-7.126,7.085A2.009,2.009,0,0,1,24.451,160.276Zm0,0" transform="translate(-22.435 -110.543)"/><path class="b" d="M31.573,160.276a2.012,2.012,0,0,1-1.425-.587L23.023,152.6a2,2,0,0,1,0-2.834,2.021,2.021,0,0,1,2.85,0L33,156.855a2,2,0,0,1-1.424,3.421Zm0,0" transform="translate(-22.433 -110.543)"/></g><path class="c" d="M166.358,129.289l15.5,15.419-24.549,24.414-15.5-15.419Zm0,0" transform="translate(-99.685 -91.332)"/><path class="d" d="M152.5,166.309a2.019,2.019,0,0,1-1.425-.587l-15.5-15.419a1.993,1.993,0,0,1,0-2.834l24.55-24.414a2.021,2.021,0,0,1,2.85,0l15.5,15.419a2,2,0,0,1,0,2.834l-24.55,24.414A2.019,2.019,0,0,1,152.5,166.309Zm-12.655-17.424L152.5,161.47l21.7-21.58-12.655-12.585Zm0,0" transform="translate(-94.872 -86.513)"/><path class="c" d="M36.766,254.611,70.359,221.2l10.336,10.279L47.1,264.89Zm0,0" transform="translate(-25.652 -156.261)"/><path class="d" d="M42.293,262.073a2.019,2.019,0,0,1-1.425-.587L30.531,251.207a2,2,0,0,1,0-2.834l33.593-33.409a2.024,2.024,0,0,1,2.85,0l10.337,10.28a2,2,0,0,1,0,2.834L43.718,261.486a2.019,2.019,0,0,1-1.425.587Zm-7.486-12.284,7.486,7.445L73.036,226.66l-7.486-7.445Zm0,0" transform="translate(-20.841 -151.439)"/><path class="e" d="M14.883,341.421,21.343,335l10.336,10.279-6.46,6.424Zm0,0" transform="translate(-10.229 -236.646)"/><path class="d" d="M20.414,348.939a2.02,2.02,0,0,1-1.425-.587L8.652,338.073a2,2,0,0,1,0-2.834l6.459-6.424a2.081,2.081,0,0,1,2.85,0L28.3,339.093a2,2,0,0,1,0,2.834l-6.46,6.424A2.015,2.015,0,0,1,20.414,348.939Zm-7.488-12.284,7.486,7.445,3.609-3.591-7.486-7.445Zm0,0" transform="translate(-5.421 -231.881)"/><path class="e" d="M299.367,13.174l6.459-6.424,23.257,23.129-6.46,6.424Zm0,0" transform="translate(-210.729 -4.769)"/><path class="d" d="M317.814,33.537a2.02,2.02,0,0,1-1.425-.587L293.132,9.822a2,2,0,0,1,0-2.834L299.591.564a2.081,2.081,0,0,1,2.849,0L325.7,23.692a2,2,0,0,1,0,2.834l-6.459,6.424a2.02,2.02,0,0,1-1.425.587ZM297.406,8.4l20.408,20.3,3.609-3.591-20.408-20.3Zm0,0" transform="translate(-205.919 0)"/><path class="f" d="M211.832,54.331l25.84-25.7L260.93,51.761l-25.84,25.7Zm0,0" transform="translate(-149.036 -20.227)"/><path class="d" d="M230.281,74.64a2.014,2.014,0,0,1-1.424-.587L205.6,50.925a2,2,0,0,1,0-2.835l25.84-25.7a2.021,2.021,0,0,1,2.85,0L257.547,45.52a2,2,0,0,1,0,2.834l-25.84,25.7A2.019,2.019,0,0,1,230.281,74.64ZM209.874,49.507,230.281,69.8l22.992-22.864-20.408-20.3Zm0,0" transform="translate(-144.228 -15.403)"/><path class="d" d="M18.009,361.7a2.015,2.015,0,0,1-1.425-.588L.959,345.578a2,2,0,0,1,0-2.834,2.024,2.024,0,0,1,2.85,0l15.626,15.538a2.005,2.005,0,0,1-1.425,3.422Zm0,0" transform="translate(0 -241.705)"/></g></svg>